<svg class="svg-icon" style="width: 1em;height: 1em;vertical-align: middle;fill: currentColor;overflow: hidden;" viewBox="0 0 1024 1024" version="1.1" xmlns="http://www.w3.org/2000/svg"><path d="M725.723429 330.313143h-53.613715c-11.702857 0-22.674286 5.558857-29.622857 15.140571L462.848 594.651429 381.513143 481.718857a36.571429 36.571429 0 0 0-29.622857-15.213714h-53.613715a9.142857 9.142857 0 0 0-7.387428 14.555428l142.336 197.485715c14.555429 20.187429 44.617143 20.187429 59.099428 0l240.64-333.750857a9.069714 9.069714 0 0 0-7.314285-14.482286z"  /><path d="M512 0a512 512 0 1 0 0 1024A512 512 0 0 0 512 0z m0 937.179429A425.179429 425.179429 0 0 1 512 86.820571a425.179429 425.179429 0 0 1 0 850.358858z"  /></svg>